<mxfile host="app.diagrams.net" modified="2024-04-28T08:34:36.951Z" agent="Mozilla/5.0 (Macintosh; Intel Mac OS X 10_15_7) AppleWebKit/537.36 (KHTML, like Gecko) Chrome/124.0.0.0 Safari/537.36" version="24.3.1" etag="m-EPF5kghjN9o1EdtFEf" type="github">
  <diagram name="第 1 页" id="zF2-gnkprWGs9678CGK0">
    <mxGraphModel>
      <root>
        <mxCell id="0" />
        <mxCell id="1" parent="0" />
      </root>
    </mxGraphModel>
  </diagram>
</mxfile>
